<?xml version="1.0" encoding="UTF-8"?><svg xmlns="http://www.w3.org/2000/svg" viewBox="0 0 259.92 571.55"><defs><style>.d{fill:#062bcf;}</style></defs><g id="a"/><g id="b"><g id="c"><path class="d" d="M109.23,456.25v-139.58L12.14,456.25H109.23Zm-24.27-24.27h-26.34l26.34-37.87v37.87Zm145.65,24.27c0-84.96-78.89-151.72-103.17-151.72,0,0,12.14,36.41,12.14,78.89s-12.14,72.82-12.14,72.82h103.17Zm-68.21-100.25c17.23,18.45,34.96,45.15,41.39,75.98h-44.66c2.55-13.35,4.73-29.86,4.73-48.55,0-9.59-.61-18.81-1.46-27.43Zm80.35,118.46H0c3.76,18.57,14.08,34.47,28.28,45.27,7.89-3.28,14.81-8.74,20.27-14.93,8.86,10.2,21.85,18.21,36.41,18.21s27.55-8.01,36.41-18.21c8.86,10.2,21.85,18.21,36.41,18.21s27.43-8.01,36.41-18.21c5.46,6.19,12.38,11.65,20.27,14.93,14.2-10.8,24.52-26.7,28.28-45.27Zm0,97.1v-24.27h-12.14c-12.62,0-25.25-4.25-36.41-12.14-22.21,15.78-50.61,15.78-72.82,0-22.21,15.78-50.61,15.78-72.82,0-11.04,7.89-23.79,12.14-36.41,12.14H0v24.27H12.14c12.5,0,24.88-3.03,36.41-9.1,22.94,12.14,49.88,12.14,72.82,0,22.94,12.14,49.88,12.14,72.82,0h0c11.53,6.07,23.91,9.1,36.41,9.1h12.14Z"/><g><path class="d" d="M209.37,62.19C203.55,27.01,172.82,0,136.03,0c-27.01,0-51.66,14.62-64.67,37.91C38.03,42.25,12.14,71.11,12.14,105.31c0,37.54,30.6,68.14,68.14,68.14h123.89c30.72,0,55.75-25.03,55.75-55.75,0-28.99-22.18-52.9-50.55-55.5Zm-5.2,86.48H80.28c-23.91,0-43.36-19.45-43.36-43.36,0-21.56,16.23-40.02,37.66-42.87l12.27-1.61,6.07-10.78c8.8-15.61,25.27-25.27,43.11-25.27,24.03,0,44.97,17.84,48.94,41.5l3.1,18.83,19.08,1.73c15.73,1.49,28,14.99,28,30.85,0,17.1-13.88,30.97-30.97,30.97Z"/><polygon class="d" points="170.72 185.84 134.79 226.97 159.57 239.36 130.45 272.56 163.28 272.56 199.21 231.43 174.43 219.04 203.55 185.84 170.72 185.84"/><polygon class="d" points="96.38 185.84 60.45 226.97 85.23 239.36 56.12 272.56 88.95 272.56 124.88 231.43 100.1 219.04 129.21 185.84 96.38 185.84"/></g></g></g></svg>