<?xml version="1.0" encoding="UTF-8"?><svg xmlns="http://www.w3.org/2000/svg" viewBox="0 0 241.9 241.9"><defs><style>.d{fill:#062bcf;}</style></defs><g id="a"/><g id="b"><g id="c"><path class="d" d="M120.95,0C54.19,0,0,54.19,0,120.95s54.19,120.95,120.95,120.95h60.48v-24.19h-60.48c-52.49,0-96.76-44.27-96.76-96.76S68.46,24.19,120.95,24.19s96.76,44.27,96.76,96.76v17.3c0,9.56-8.59,18.99-18.14,18.99s-18.14-9.43-18.14-18.99v-17.3c0-33.38-27.09-60.48-60.48-60.48s-60.48,27.09-60.48,60.48,27.09,60.48,60.48,60.48c16.69,0,31.93-6.77,42.82-17.78,7.86,10.76,21.41,17.78,35.8,17.78,23.83,0,42.33-19.35,42.33-43.18v-17.3C241.9,54.19,187.72,0,120.95,0Zm0,157.24c-20.08,0-36.29-16.21-36.29-36.29s16.21-36.29,36.29-36.29,36.29,16.21,36.29,36.29-16.21,36.29-36.29,36.29Z"/></g></g></svg>