<svg xmlns="http://www.w3.org/2000/svg" viewBox="0 0 484 331"><defs><style>.cls-1{fill:#062bcf;}.cls-2{fill:#fff;}</style></defs><g id="Layer_2" data-name="Layer 2"><g id="Capa_1" data-name="Capa 1"><path class="cls-1" d="M484,303V28A28,28,0,0,1,456,0H28A28,28,0,0,1,0,28V303a28,28,0,0,1,28,28H456A28,28,0,0,1,484,303Z"/><path class="cls-2" d="M449.24,323.5H34.76l-.51-1.84A35.64,35.64,0,0,0,9.34,296.75l-1.84-.51V34.76l1.84-.51A35.64,35.64,0,0,0,34.25,9.34l.51-1.84H449.24l.51,1.84a35.64,35.64,0,0,0,24.91,24.91l1.84.51V296.24l-1.84.51a35.64,35.64,0,0,0-24.91,24.91Zm-410.71-5H445.47a40.73,40.73,0,0,1,26-26V38.53a40.73,40.73,0,0,1-26-26H38.53a40.73,40.73,0,0,1-26,26V292.47A40.73,40.73,0,0,1,38.53,318.5Z"/></g></g></svg>