<svg xmlns="http://www.w3.org/2000/svg" viewBox="0 0 465.82 494.93"><defs><style>.cls-1{fill:#062bcf;}</style></defs><g id="Layer_2" data-name="Layer 2"><g id="Capa_1" data-name="Capa 1"><path class="cls-1" d="M10.9,492.67,19.34,481c-.25-.9-.3-2.45-.76-2.58C-.49,472.89-2.2,461.43,1.7,443c8.06-38.1,23.12-72.49,43.72-105.19,7.14-11.33,14.23-24.61,15.2-37.46,1.89-25,19.17-36.09,36.59-46.77,33.14-20.31,67.21-39.08,101-58.33,11.11-6.34,22.17-13.91,37.59-6.39L225,210c26.28-12.87,48.44-24,56.43-52.16C291.84,121,303.48,84.57,315.48,48.27A212.46,212.46,0,0,1,338.52,0c-1.9,22.14-4,44.26-5.62,66.42-1.2,15.86-2,31.76-2.7,47.66-1.05,24.5,10.5,39.53,35.05,37.56,30.84-2.48,61.28-10.09,91.88-15.6,2.31-.42,4.46-1.71,6.68-2.59l2,4.42c-20.2,11-39.7,23.69-60.8,32.58-27.41,11.54-55.92,20.61-84.31,29.61-15.11,4.78-26.21,12.92-33.88,26.77-6.25,11.28-13.57,21.95-20.47,32.87l2.26,2.35,23.92-13.56,2.4,2.24c-7,14.8-13.49,29.88-21.38,44.19-1.87,3.39-8.36,4.8-13,6-16.49,4.2-27.68,12.46-33.39,30-3.64,11.18-12.73,21.11-20.93,30.19-13.22,14.63-27.73,28.1-44.35,44.72,29.58.08,29.2,27.68,45.7,37.83q-.87,2.24-1.74,4.5c-15.81-5.34-32.2-9.41-47.23-16.41-11.21-5.23-19-5.37-29.39,2.17C97.39,457,63.65,477,26.25,490c-3.84,1.34-7.72,2.61-13.89,4.67C10.24,495.4,9.58,494.5,10.9,492.67Zm38.32-59.93a12,12,0,1,0-14.63,0A12,12,0,0,0,49.22,432.74Z"/></g></g></svg>