<svg xmlns="http://www.w3.org/2000/svg" viewBox="0 0 480 480"><defs><style>.cls-1{fill:#062bcf;}</style></defs><g id="Layer_2" data-name="Layer 2"><g id="Capa_1" data-name="Capa 1"><path class="cls-1" d="M468.3,411.72l-77.78-77.79h0a40.09,40.09,0,0,0-48.61-6.17L250,235.86V150a40,40,0,0,0-80,0v5.86L17.07,2.93A10,10,0,0,0,0,10V255a95,95,0,0,0,190,0V204.14l40,40v67.57a30,30,0,0,0,0,56.57V440a20,20,0,0,1-40,0V390a10,10,0,0,0-17.07-7.07l-30,30a10,10,0,1,0,14.15,14.14L170,414.14V440a40,40,0,0,0,80,0V368.29a30,30,0,0,0,0-56.58V264.14l77.76,77.76A40.06,40.06,0,0,0,334,390.5l77.78,77.79a40,40,0,0,0,56.57-56.57ZM170,255a75,75,0,0,1-150,0V34.14l150,150Zm20-79.14V150a20,20,0,0,1,40,0v65.86ZM240,350a10,10,0,1,1,10-10A10,10,0,0,1,240,350ZM454.16,454.14a20,20,0,0,1-28.28,0l-77.79-77.78a20,20,0,0,1-.07-28.22l.07-.06.07-.07a20,20,0,0,1,28.22.07l77.78,77.78A20,20,0,0,1,454.16,454.14Z"/></g></g></svg>