<svg xmlns="http://www.w3.org/2000/svg" viewBox="0 0 466 500.65"><defs><style>.cls-1{fill:#062bcf;}</style></defs><g id="Layer_2" data-name="Layer 2"><g id="Capa_1" data-name="Capa 1"><path class="cls-1" d="M42.92,460.15,0,453.17c.56-3.13.61-6.34,1.72-9.12C21.58,394.69,44.92,347.33,79.25,306c3-3.66,3.16-12,1.33-17-3.53-9.48-9.87-17.88-14.11-27.15-1.36-3-1-9.74.66-10.55a243,243,0,0,1,31-12.51c7.57-2.5,16.42-2.06,23.23-5.69,13.25-7.08,27-8,41.23-7.12,9.72.59,16.2-3.9,16.1-13.15-.31-29.22,16.45-41.2,42.41-47.06,15.08-3.4,29.33-10.43,46.94-16.93-4.39,11-7.7,19.39-12.63,31.8,32.61-22.61,68.22-36,73.18-79.5,2.69-23.53,7.61-46.87,12.86-70,2.24-9.87,7.9-19,13.19-31.17,6.41,34.05,11.87,64,17.91,93.92.8,4,3.83,9.66,7,10.65,17.31,5.36,34.86,10.16,52.6,13.82,10.66,2.19,21.82,2,33.84,5.46-11.79,4.53-23.31,10-35.44,13.36-17.93,4.91-36.28,8.27-54.46,12.28-18,4-32.49,12.6-42.73,28.57-9.43,14.73-20.08,28.68-28.3,45.51l12.14-7c-2.81,19.48-5.44,38.77-8.47,58-1.28,8.18-6.45,8.45-13.5,6.37-25-7.38-24.34-6.65-39.44,13.72-19.08,25.76-39.49,50.53-59.31,75.73-2.51,3.19-4.94,6.43-7.28,9.48,1.28,1.41,1.92,2.66,2.44,2.62,23.53-2,32.62,12,37,32.28,2.15,9.91,6.2,19.42,9.48,29.37-27.24,4.08-44.71-13.78-62.17-29.52-9.65-8.7-14.61-9.69-24.61-.42-12.83,11.9-28.16,21.16-42.71,31.12q-35.07,24-70.6,47.31c-5.47,3.57-12.06,5.4-18.13,8l-3.2-4.57C24.8,485,32.85,474,42.92,460.15Z"/></g></g></svg>