<svg xmlns="http://www.w3.org/2000/svg" viewBox="0 0 484 165.5"><defs><style>.cls-1{fill:#062bcf;}.cls-2{fill:#fff;}</style></defs><g id="Layer_2" data-name="Layer 2"><g id="Capa_1" data-name="Capa 1"><path class="cls-1" d="M484,137.5V28A28,28,0,0,1,456,0H28A28,28,0,0,1,0,28V137.5a28,28,0,0,1,28,28H456A28,28,0,0,1,484,137.5Z"/><path class="cls-2" d="M449.24,158H34.76l-.51-1.84A35.64,35.64,0,0,0,9.34,131.25l-1.84-.51v-96l1.84-.51A35.64,35.64,0,0,0,34.25,9.34l.51-1.84H449.24l.51,1.84a35.64,35.64,0,0,0,24.91,24.91l1.84.51v96l-1.84.51a35.64,35.64,0,0,0-24.91,24.91ZM38.53,153H445.47a40.73,40.73,0,0,1,26-26V38.53a40.73,40.73,0,0,1-26-26H38.53a40.73,40.73,0,0,1-26,26V127A40.73,40.73,0,0,1,38.53,153Z"/></g></g></svg>