<svg xmlns="http://www.w3.org/2000/svg" viewBox="0 0 450.18 462.79"><defs><style>.cls-1{fill:#062bcf;}</style></defs><g id="Layer_2" data-name="Layer 2"><g id="Capa_1" data-name="Capa 1"><path class="cls-1" d="M16.2,454.24c6.93-12.49,5.94-15.18-7-23.06C-2,424.29-1.32,424.35,2.64,411.9c3.46-10.9,7.53-22.44-.94-33.52-1.29-1.69-.86-5.38-.14-7.82,7.3-24.56,15-49,22.24-73.59,6.38-21.6,18-40.45,29.17-59.74C64.39,217.5,74.26,196.81,83.68,176c7.86-17.33,20-26.09,38.95-29.75,26.84-5.2,53.28-12.86,79.51-20.73C235,115.71,267.34,104.49,300,94.2c2.92-.91,6.64.71,10,1.15.21,1.23.43,2.47.64,3.71,8.8-6.71,18.47-12.58,26-20.5,3.55-3.73,4.07-11.4,4-17.28-.08-14.53-1.83-29.07-1.73-43.6,0-5.81,3.16-11.6,5-17.68,2.6,1,3.68,1.1,4.08,1.66,10.67,14.71,25.87,23.64,40.57,33.62,9.7,6.58,17.89,16,25.07,25.5,11.16,14.66,18.75,32.15,36.53,42-8,6.95-15.94,9.68-25.25,8-11.55-2-23.08-4.2-34.67-6-17.58-2.7-32.18,4.88-40.51,20.7-.65,1.24-2.08,3-1.68,3.74,6.87,12.18-2.6,21.87-5.41,32.22-7.14,26.43-16.66,52.22-23.5,78.72-3.24,12.54-2.21,26.12-3.69,39.17-1.41,12.36-2.94,24.76-5.56,36.9-3.38,15.74-16.15,24.64-27.53,34.22a173.68,173.68,0,0,1-51.16,29.73c-4.24,1.6-8.42,3.39-12.55,5.27-22.26,10.12-44.49,20.31-69.15,31.58l14.37,7.41c7.19,3.7,9.43,13.73,3.53,19.23-1.91,1.79-7.12,2-9.64.7-3.84-2-7-5.68-9.81-9.2s-4.66-7.69-7.55-12.61c-19.19,7.57-38.19,15.3-57.39,22.51-6.36,2.39-13.3,3.24-19.85,5.18-10.82,3.21-21.53,6.79-32.32,10.09-3.46,1.06-7.17,2.76-10.54,2.34C16,462.19,13.15,459.72,16.2,454.24ZM68.46,384.7a14.25,14.25,0,1,0-20.15,0A14.26,14.26,0,0,0,68.46,384.7Z"/></g></g></svg>