<svg xmlns="http://www.w3.org/2000/svg" viewBox="0 0 472.05 459.14"><defs><style>.cls-1{fill:#062bcf;}</style></defs><g id="Layer_2" data-name="Layer 2"><g id="Layer_1-2" data-name="Layer 1"><path class="cls-1" d="M255.05,0c.48,0,.8.32,1.28.32l2.25,1.12L396.75,58.83a137.78,137.78,0,0,1,23.57,13.79s.32,0,.32.48a76.36,76.36,0,0,1,9.93,10.42,79.84,79.84,0,0,1,9,16.83,89.88,89.88,0,0,1,2.57,17v1.92a36.46,36.46,0,0,1-2.25,13.15,42.64,42.64,0,0,0-3.52-14A32,32,0,0,0,425.29,105a45.38,45.38,0,0,0-10.1-5c-4.65-1.12-9.14-1.93-14.27-2.73-7.69-.8-15.39-1.12-22.28-1.44-9.14,0-18.11.32-27.73.64a234.83,234.83,0,0,0-33,3.85c-8.18,1.28-15.87,2.72-24.21,4.32l3.85-5.77,4.17-8.81a37.22,37.22,0,0,0,1.92-10.9V78.07a30.9,30.9,0,0,0-3-11.54L292.08,55,253.61,5c-.8-.32-.8-1.12-.8-1.92a2.5,2.5,0,0,1,.8-2.25,2.21,2.21,0,0,1,1.44-.8Zm205.8,118.31c1.93,3.37,3.83,6.86,5.43,10.23a94.66,94.66,0,0,1,5,17.81c.32,3,.76,6.55.76,9.6,0,2.72-.48,5-.48,7.37-1.13,6.9-2.23,13.49-3.83,19.9a107.27,107.27,0,0,1-19.9,38.47,162.6,162.6,0,0,1-15.86,17c-5,4.33-10.37,8.85-16.14,13.5a167,167,0,0,1-19.55,12.66c-9.3,5.45-19,10.41-28.6,15.37a369.56,369.56,0,0,1-110.06,38.13c-25,3.53-50,6.59-75.7,8.84a97.94,97.94,0,0,1-1.11,15.37,73.61,73.61,0,0,1-4.66,18.58,80.9,80.9,0,0,1-8.84,18.43,120.72,120.72,0,0,1-14.54,17.05A84.93,84.93,0,0,1,132.4,410,65.3,65.3,0,0,1,113.82,415c-1.92,0-3.85.34-5.77.34-1.13,0-2.22-.34-3.34-.34L1.46,407.59H1.11A1.17,1.17,0,0,1,0,406.48c0-.8.83-1.12,2-1.6,3.85-1.12,8-2.57,12.31-4.18,4.49-1.6,9.64-3.47,14.13-4.59,6.57-2.24,13.47-4.68,20.52-6.12,6.89-1.6,13.78-3,21.15-4.31a88,88,0,0,0,14.26-2.23,2.7,2.7,0,0,0,1.46-2.3,1.31,1.31,0,0,0-.35-.76,1.23,1.23,0,0,0-.48-.84c0-.32-.28-.28-.28-.76-1.12-.8-2.77-1.59-3.9-2.23a72.06,72.06,0,0,0-8-3.89c-6.57-3.21-13.47-5.77-20.52-9l-9.12-3.34c-4.33-1.6-9-2.74-15.37-4.66a23.59,23.59,0,0,1-3.2-1.11c-2.57-.8-5.35-1.64-8.07-2.44A136.51,136.51,0,0,1,36,328.76L50.37,315c5-4.33,9.59-8.18,13.91-11.55,7.22-5.13,14.25-10.09,20.67-14.26a343.1,343.1,0,0,1,39.3-22.47,250.6,250.6,0,0,1,24.36-10.23c9.93-3.53,19.52-7.06,17.6-6.26,8.81-2.73,18.11-5.32,26.92-7.73l28.74-77.22c7.37,3.85,15.06,7.67,21.64,10.72a58.35,58.35,0,0,0,17.6,5,67.67,67.67,0,0,0,22,.76l93.44-7.65L351.2,204.37c-.8,1.28-1.94,2.71-3.06,4.31-.8.81-.76,1.43-.76,2.72a2.54,2.54,0,0,0,2.71,1.95,80,80,0,0,0,13.78-.49A108.15,108.15,0,0,0,383.14,209a63.79,63.79,0,0,0,15-5.29,95.82,95.82,0,0,0,17.67-9,113,113,0,0,0,14.54-10.3,105.48,105.48,0,0,0,14-12.8A67.2,67.2,0,0,0,452,161a87.89,87.89,0,0,0,6.61-16.56c1.12-6.25,2.23-12.36,2.71-17.33a49.78,49.78,0,0,1-.49-8.76Zm10.58,102.56-1.12,9.3a220.14,220.14,0,0,1-32.38,84.63,153.9,153.9,0,0,1-42,44.24l-8.82,6.25-17.63,11.06a347.21,347.21,0,0,1-126,44.41l-31.1,2.56-31.74,1.93-33.5-.32A121.09,121.09,0,0,0,171,405.69l6.9-8a84.27,84.27,0,0,0,13.46-23.56c1.44-5.45,2.73-10.42,3.85-15.71l1.92-12.34,33.34-3.53,26.13-3.36,17.63-2.73a297.38,297.38,0,0,0,30.14-7.69l32.22-11.54,25-11.22,25.48-12.67L411,280.18l18.75-12.66,23.88-22.28,17.8-24.37ZM78.2,313.18a13.5,13.5,0,1,0,13.15,13.5,13.42,13.42,0,0,0-13.15-13.5Zm332.07,85.69a351.71,351.71,0,0,0-40.07,31.25c-10.74,9.14-20.36,19.24-30,29a20.94,20.94,0,0,1-6.89-1.45A222.56,222.56,0,0,1,309.45,445a81.37,81.37,0,0,1-19.24-14.9c4.17-1.61,8.5-3.05,12.66-4.33A182.31,182.31,0,0,0,333,415.38a177.63,177.63,0,0,0,20.68-10.26,7.93,7.93,0,0,0,2.72.32,78.89,78.89,0,0,0,13.79-1.12c13.46-1.13,26.93-3.05,40.07-5.46Z"/></g></g></svg>